<svg width="60" height="20" viewBox="0 0 60 20" fill="none" xmlns="http://www.w3.org/2000/svg">
<path d="M21.6667 16.6667V13.3333H26.6667V15H33.3333V11.6667H25C23.1667 11.6667 21.6667 10.1667 21.6667 8.33333V3.33333C21.6667 1.5 23.1667 0 25 0H35C36.8333 0 38.3333 1.5 38.3333 3.33333V6.66667H33.3333V5H26.6667V8.33333H35C36.8333 8.33333 38.3333 9.83333 38.3333 11.6667V16.6667C38.3333 18.5 36.8333 20 35 20H25C23.1667 20 21.6667 18.5 21.6667 16.6667ZM46.6667 20H56.6667C58.5 20 60 18.5 60 16.6667V11.6667C60 9.83333 58.5 8.33333 56.6667 8.33333H48.3333V5H55V6.66667H60V3.33333C60 1.5 58.5 0 56.6667 0H46.6667C44.8333 0 43.3333 1.5 43.3333 3.33333V8.33333C43.3333 10.1667 44.8333 11.6667 46.6667 11.6667H55V15H48.3333V13.3333H43.3333V16.6667C43.3333 18.5 44.8333 20 46.6667 20ZM16.6667 3.33333C16.6667 1.5 15.1667 0 13.3333 0H3.33333C1.5 0 0 1.5 0 3.33333V16.6667C0 18.5 1.5 20 3.33333 20H13.3333C15.1667 20 16.6667 18.5 16.6667 16.6667V13.3333H11.6667V15H5V5H11.6667V6.66667H16.6667V3.33333Z" fill="black"/>
</svg>
