<svg width="46" height="57" viewBox="0 0 46 57" fill="none" xmlns="http://www.w3.org/2000/svg">
<path d="M44.8477 1.28713C44.6288 1.01503 44.3624 0.79775 44.0656 0.649118C43.7688 0.500486 43.448 0.423761 43.1237 0.423828H2.33599C2.01169 0.42384 1.69095 0.50063 1.39418 0.649309C1.09741 0.797988 0.831119 1.0153 0.612253 1.28741C0.393386 1.55952 0.226742 1.88046 0.122929 2.22981C0.0191156 2.57916 -0.0195919 2.94926 0.00927058 3.31656L3.56009 48.4739C3.60254 49.0115 3.78802 49.5217 4.09185 49.9365C4.39567 50.3512 4.8034 50.6509 5.26075 50.7955L22.0804 56.1082C22.2842 56.1732 22.4948 56.2062 22.7065 56.2065C22.9172 56.2063 23.127 56.1742 23.3302 56.1108L40.1966 50.7982C40.6547 50.6538 41.0632 50.354 41.3675 49.9387C41.6718 49.5233 41.8574 49.0124 41.8996 48.4739L45.4504 3.31656C45.4794 2.94924 45.4407 2.5791 45.3369 2.2297C45.2332 1.8803 45.0666 1.5593 44.8477 1.28713ZM37.3887 46.1682L22.7088 50.7929L8.07103 46.1709L4.88931 5.73646H40.5704L37.3887 46.1682ZM12.9651 29.6433H29.0723L28.3084 38.3321L22.3094 40.7679L14.918 37.7663C14.3344 37.5292 13.6919 37.5655 13.1318 37.8672C12.5717 38.1688 12.1399 38.7111 11.9314 39.3747C11.7229 40.0383 11.7548 40.769 12.0201 41.4059C12.2853 42.0428 12.7622 42.5337 13.3459 42.7708L21.5221 46.0912C22.0305 46.2971 22.5859 46.2971 23.0943 46.0912L31.2705 42.7708C31.6869 42.6019 32.0527 42.302 32.3252 41.9061C32.5977 41.5102 32.7658 41.0344 32.81 40.5342L33.978 27.2526C34.0106 26.8832 33.9748 26.5102 33.8729 26.1575C33.7709 25.8048 33.6051 25.4804 33.3861 25.2051C33.1671 24.9297 32.8998 24.7097 32.6014 24.5591C32.3029 24.4085 31.9801 24.3307 31.6536 24.3307H15.0792L14.3784 16.3617H32.8216C33.4412 16.3617 34.0354 16.0819 34.4735 15.5837C34.9116 15.0855 35.1577 14.4099 35.1577 13.7054C35.1577 13.0009 34.9116 12.3253 34.4735 11.8271C34.0354 11.329 33.4412 11.0491 32.8216 11.0491H11.7971C11.4706 11.0491 11.1477 11.1269 10.8493 11.2775C10.5509 11.4281 10.2836 11.6482 10.0646 11.9235C9.84555 12.1988 9.67973 12.5233 9.57778 12.8759C9.47583 13.2286 9.44002 13.6017 9.47267 13.971L10.6407 27.2526C10.6986 27.9078 10.9685 28.5152 11.398 28.957C11.8275 29.3987 12.386 29.6433 12.9651 29.6433Z" fill="black"/>
</svg>
