<svg width="49" height="57" viewBox="0 0 49 57" fill="none" xmlns="http://www.w3.org/2000/svg">
<path d="M45.6667 3L40.3333 47.936L24.3333 54.1341L8.33333 47.936L3 3H45.6667Z" stroke="black" stroke-width="5" stroke-linecap="round" stroke-linejoin="round"/>
<path d="M12.333 15.3961H20.333V40.1883L14.9997 37.0893M36.333 15.3961H29.6663C29.3127 15.3961 28.9736 15.5593 28.7235 15.8499C28.4735 16.1405 28.333 16.5346 28.333 16.9456V26.2427C28.333 26.6536 28.4735 27.0478 28.7235 27.3384C28.9736 27.6289 29.3127 27.7922 29.6663 27.7922H33.461C33.6519 27.7922 33.8405 27.8399 34.0141 27.9319C34.1878 28.024 34.3424 28.1583 34.4675 28.3257C34.5927 28.4932 34.6854 28.6899 34.7395 28.9026C34.7936 29.1153 34.8077 29.339 34.781 29.5586L33.6663 38.6388L28.333 40.1883" stroke="black" stroke-width="5" stroke-linecap="round" stroke-linejoin="round"/>
</svg>
