<svg width="1440" height="500" viewBox="0 0 1440 500" fill="none" xmlns="http://www.w3.org/2000/svg">
<g clip-path="url(#clip0_52_500)">
<rect width="1440" height="500" fill="white"/>
<g opacity="0.7" filter="url(#filter0_f_52_500)">
<path d="M744.052 325.396L720.95 336.993C714.442 340.26 709.411 345.707 706.725 352.394C700.704 367.383 707.698 384.939 722.783 392.701L741.409 402.285C749.516 406.457 758.459 408.641 767.437 408.641L928.909 408.641L1099.13 408.641C1112.83 408.641 1126.43 407.397 1139.77 404.925L1180.81 397.323C1267.19 381.323 1324.53 303.798 1314.15 217.049C1312.61 204.148 1309.59 191.392 1305.14 179.023L1273.32 90.4593L1244.74 34.3478C1239.83 24.7011 1230.35 17.9436 1219.6 16.4227L1210.17 15.09C1200.91 13.7802 1192.27 18.9092 1189.37 27.43L1171.64 74.4974L1158.45 111.181L1153.13 130.27C1148.31 147.529 1136.17 161.646 1119.71 169.136C1111.02 173.088 1101.45 175.045 1091.69 174.865L1077 174.594C1060.88 174.296 1044.97 176.931 1030.1 182.364L1010.62 189.482C999.989 193.367 989.688 198.002 979.795 203.35L961.691 213.138C945.936 221.655 931.916 232.824 920.237 246.161C910.331 257.475 898.729 267.239 885.796 275.149L877.39 280.29C854.12 294.522 828.189 304.343 800.872 309.271L789.69 311.288L764.39 317.79C757.323 319.607 750.506 322.156 744.052 325.396Z" fill="#F39561"/>
</g>
<g opacity="0.7" filter="url(#filter1_f_52_500)">
<path d="M678.72 223.566L696.387 217.784C699.53 216.755 702.432 215.081 704.904 212.87C717.003 202.05 714.995 182.758 700.975 175.128L676.981 162.069C674.328 160.625 671.523 159.47 668.613 158.623L468.688 100.41C447.106 94.1262 424.855 90.2234 402.332 88.7711L287.874 81.3908C216.952 76.8177 150.737 119.889 125.799 186.817C118.34 206.837 114.962 228.071 115.868 249.259L118.629 313.893L127.992 364.591C129.853 374.665 136.775 382.991 146.336 386.653L154.46 389.765C162.067 392.679 170.784 390.192 175.847 383.664L205.002 348.46L227.164 320.891L236.112 307.963C246.081 293.562 261.505 283.805 278.723 281.008C287.264 279.621 295.966 279.994 304.29 282.106L317.893 285.556C332.243 289.196 347.156 290.356 361.992 288.986L397.362 285.72L432.45 277.774C448.563 274.125 464.021 267.893 478.218 259.324C490.299 252.031 503.305 246.425 516.864 242.667L531.512 238.606C552.849 232.691 574.967 230.393 596.933 231.809C607.861 232.514 618.847 232.301 629.774 231.171L655.49 228.514C663.373 227.699 671.161 226.04 678.72 223.566Z" fill="#CC8805"/>
</g>
</g>
<defs>
<filter id="filter0_f_52_500" x="304.57" y="-385.113" width="1410.79" height="1193.75" filterUnits="userSpaceOnUse" color-interpolation-filters="sRGB">
<feFlood flood-opacity="0" result="BackgroundImageFix"/>
<feBlend mode="normal" in="SourceGraphic" in2="BackgroundImageFix" result="shape"/>
<feGaussianBlur stdDeviation="200" result="effect1_foregroundBlur_52_500"/>
</filter>
<filter id="filter1_f_52_500" x="-284.276" y="-318.941" width="1397.14" height="1109.91" filterUnits="userSpaceOnUse" color-interpolation-filters="sRGB">
<feFlood flood-opacity="0" result="BackgroundImageFix"/>
<feBlend mode="normal" in="SourceGraphic" in2="BackgroundImageFix" result="shape"/>
<feGaussianBlur stdDeviation="200" result="effect1_foregroundBlur_52_500"/>
</filter>
<clipPath id="clip0_52_500">
<rect width="1440" height="500" fill="white"/>
</clipPath>
</defs>
</svg>
