<svg width="175" height="62" viewBox="0 0 175 62" fill="none" xmlns="http://www.w3.org/2000/svg">
<path d="M9.39453 24.4883L15.0586 0.5625H18.2227L18.9453 4.54688L12.9102 29H9.51172L9.39453 24.4883ZM6.48438 0.5625L11.1719 24.4883L10.7812 29H6.99219L0.683594 0.5625H6.48438ZM23.9258 24.3906L28.5547 0.5625H34.3555L28.0664 29H24.2773L23.9258 24.3906ZM20 0.5625L25.7031 24.5859L25.5469 29H22.1484L16.0742 4.52734L16.8555 0.5625H20ZM56.6211 24.4297V29H41.4844V24.4297H56.6211ZM43.3984 0.5625V29H37.5391V0.5625H43.3984ZM54.6484 12.1445V16.5977H41.4844V12.1445H54.6484ZM56.6016 0.5625V5.15234H41.4844V0.5625H56.6016ZM71.1719 16.5195H63.8672L63.8281 12.4961H69.9609C71.0417 12.4961 71.9271 12.3594 72.6172 12.0859C73.3073 11.7995 73.8216 11.3893 74.1602 10.8555C74.5117 10.3086 74.6875 9.64453 74.6875 8.86328C74.6875 7.97786 74.5182 7.26172 74.1797 6.71484C73.8542 6.16797 73.3398 5.77083 72.6367 5.52344C71.9466 5.27604 71.0547 5.15234 69.9609 5.15234H65.8984V29H60.0391V0.5625H69.9609C71.6146 0.5625 73.0924 0.71875 74.3945 1.03125C75.7096 1.34375 76.8229 1.81901 77.7344 2.45703C78.6458 3.09505 79.3424 3.90234 79.8242 4.87891C80.306 5.84245 80.5469 6.98828 80.5469 8.31641C80.5469 9.48828 80.2799 10.569 79.7461 11.5586C79.2253 12.5482 78.3984 13.3555 77.2656 13.9805C76.1458 14.6055 74.681 14.9505 72.8711 15.0156L71.1719 16.5195ZM70.918 29H62.2656L64.5508 24.4297H70.918C71.9466 24.4297 72.7865 24.2669 73.4375 23.9414C74.0885 23.6029 74.5703 23.1471 74.8828 22.5742C75.1953 22.0013 75.3516 21.3438 75.3516 20.6016C75.3516 19.7682 75.2083 19.0456 74.9219 18.4336C74.6484 17.8216 74.2057 17.3529 73.5938 17.0273C72.9818 16.6888 72.1745 16.5195 71.1719 16.5195H65.5273L65.5664 12.4961H72.5977L73.9453 14.0781C75.6771 14.0521 77.0703 14.3581 78.125 14.9961C79.1927 15.6211 79.9674 16.4349 80.4492 17.4375C80.944 18.4401 81.1914 19.5143 81.1914 20.6602C81.1914 22.4831 80.7943 24.0195 80 25.2695C79.2057 26.5065 78.0404 27.4375 76.5039 28.0625C74.9805 28.6875 73.1185 29 70.918 29ZM39.1602 32.5625L42.793 42.4453L49.5312 32.5625H56.3281L45.918 46.918L51.8164 61H45.4883L41.7383 50.9219L34.8438 61H27.9492L38.6328 46.4102L32.8711 32.5625H39.1602ZM67.4219 50.8828L60.0586 50.8633L60.8594 46.293L67.6172 46.3125C68.5807 46.3125 69.4661 46.1432 70.2734 45.8047C71.0807 45.4531 71.7448 44.9453 72.2656 44.2812C72.7865 43.6172 73.1185 42.7839 73.2617 41.7812C73.3919 40.9349 73.3464 40.1732 73.125 39.4961C72.9036 38.819 72.513 38.2721 71.9531 37.8555C71.3932 37.4388 70.6706 37.2109 69.7852 37.1719L64.4531 37.1523L60.3125 61H54.5898L59.5117 32.5625L69.9609 32.582C71.7708 32.6211 73.3854 33.0117 74.8047 33.7539C76.224 34.4831 77.3177 35.5247 78.0859 36.8789C78.8672 38.2201 79.1797 39.8411 79.0234 41.7422C78.8542 43.8125 78.2096 45.5247 77.0898 46.8789C75.9701 48.2331 74.5573 49.2422 72.8516 49.9062C71.1589 50.5573 69.349 50.8828 67.4219 50.8828ZM98.2031 56.4297L97.4023 61H83.4766L84.2773 56.4297H98.2031ZM90.293 32.5625L85.3516 61H79.6289L84.5508 32.5625H90.293ZM124.59 46.0195L124.434 47.3867C124.173 49.2096 123.685 50.9674 122.969 52.6602C122.253 54.3529 121.315 55.8633 120.156 57.1914C118.997 58.5065 117.617 59.5482 116.016 60.3164C114.427 61.0716 112.624 61.4297 110.605 61.3906C108.678 61.3516 107.044 60.9349 105.703 60.1406C104.375 59.3333 103.32 58.2656 102.539 56.9375C101.771 55.6094 101.257 54.1315 100.996 52.5039C100.736 50.8633 100.71 49.1836 100.918 47.4648L101.074 46.1172C101.335 44.2943 101.823 42.543 102.539 40.8633C103.268 39.1836 104.212 37.6862 105.371 36.3711C106.543 35.043 107.923 34.0013 109.512 33.2461C111.113 32.4909 112.91 32.1328 114.902 32.1719C116.829 32.1979 118.457 32.6146 119.785 33.4219C121.126 34.2161 122.181 35.2773 122.949 36.6055C123.73 37.9206 124.251 39.3984 124.512 41.0391C124.772 42.6667 124.798 44.3268 124.59 46.0195ZM118.633 47.4648L118.828 46.0586C118.932 45.1732 118.984 44.2161 118.984 43.1875C118.997 42.1458 118.88 41.1497 118.633 40.1992C118.385 39.2357 117.943 38.4479 117.305 37.8359C116.68 37.2109 115.775 36.8724 114.59 36.8203C113.314 36.7812 112.22 37.0352 111.309 37.582C110.41 38.1289 109.655 38.8711 109.043 39.8086C108.444 40.7331 107.969 41.7487 107.617 42.8555C107.279 43.9492 107.031 45.0234 106.875 46.0781L106.699 47.4844C106.582 48.3568 106.517 49.3203 106.504 50.375C106.504 51.4167 106.628 52.4193 106.875 53.3828C107.122 54.3333 107.565 55.1211 108.203 55.7461C108.841 56.3711 109.753 56.7096 110.938 56.7617C112.201 56.8008 113.281 56.5404 114.18 55.9805C115.091 55.4206 115.853 54.6784 116.465 53.7539C117.077 52.8164 117.559 51.8008 117.91 50.707C118.262 49.6003 118.503 48.5195 118.633 47.4648ZM131.035 32.5625L141.055 32.582C142.786 32.6081 144.355 32.9271 145.762 33.5391C147.181 34.151 148.281 35.069 149.062 36.293C149.857 37.5169 150.189 39.0729 150.059 40.9609C149.928 42.5104 149.551 43.819 148.926 44.8867C148.314 45.9544 147.487 46.8594 146.445 47.6016C145.417 48.3438 144.232 48.9818 142.891 49.5156L140.898 50.4727H131.641L132.422 45.9023L138.789 45.9414C139.74 45.9284 140.605 45.7461 141.387 45.3945C142.168 45.043 142.812 44.5352 143.32 43.8711C143.841 43.194 144.167 42.3737 144.297 41.4102C144.414 40.5638 144.355 39.8281 144.121 39.2031C143.9 38.5781 143.516 38.0898 142.969 37.7383C142.422 37.3867 141.725 37.1979 140.879 37.1719L135.977 37.1523L131.836 61H126.113L131.035 32.5625ZM141.68 61L137.578 48.3242L143.34 48.2852L147.773 60.6875V61H141.68ZM170.352 56.4297L169.551 61H154.844L155.625 56.4297H170.352ZM161.66 32.5625L156.719 61H150.996L155.918 32.5625H161.66ZM170.566 44.1445L169.785 48.5977H156.992L157.773 44.1445H170.566ZM174.453 32.5625L173.652 37.1523H158.965L159.785 32.5625H174.453Z" fill="url(#paint0_linear_179_173)"/>
<defs>
<linearGradient id="paint0_linear_179_173" x1="56.3256" y1="31" x2="99.5611" y2="56.7488" gradientUnits="userSpaceOnUse">
<stop stop-color="#C9E94A"/>
<stop offset="1" stop-color="#ABFF57"/>
</linearGradient>
</defs>
</svg>
